<?xml version="1.0" standalone="no"?>
<!DOCTYPE svg PUBLIC "-//W3C//DTD SVG 20010904//EN"
 "http://www.w3.org/TR/2001/REC-SVG-20010904/DTD/svg10.dtd">
<svg version="1.0" xmlns="http://www.w3.org/2000/svg"
 width="1280.000000pt" height="522.000000pt" viewBox="0 0 1280.000000 522.000000"
 preserveAspectRatio="xMidYMid meet">

<g transform="translate(0.000000,522.000000) scale(0.100000,-0.100000)"
fill="#000000" stroke="none">
<path d="M1083 4972 c-24 -2 -43 -7 -43 -13 0 -5 -47 -9 -107 -9 -60 0 -114
-4 -121 -9 -9 -5 -12 -31 -10 -92 l3 -84 130 -3 130 -3 35 -101 35 -101 0
-451 0 -451 -132 -3 -133 -3 0 149 c0 161 -7 194 -52 258 -33 46 -83 78 -158
100 -44 13 -56 13 -99 0 -95 -28 -140 -64 -183 -146 -22 -42 -23 -58 -26 -250
l-4 -205 -27 -30 c-44 -49 -91 -113 -91 -124 0 -6 -18 -55 -39 -108 -106 -263
-151 -553 -130 -842 15 -209 45 -334 155 -639 41 -113 180 -240 297 -273 23
-6 156 -10 332 -9 l295 0 0 -459 0 -459 -25 -68 c-51 -138 -36 -124 -130 -124
-45 0 -103 -3 -129 -6 l-47 -7 3 -86 3 -86 112 -5 c68 -4 118 -11 125 -18 19
-19 614 -16 648 3 17 10 57 14 125 15 55 0 105 4 110 8 6 4 10 44 10 89 0 98
8 93 -151 93 -107 0 -112 1 -117 22 -3 13 -19 62 -36 109 l-31 87 2 443 3 444
156 3 156 2 7 -87 c4 -49 12 -109 18 -135 l10 -48 294 0 294 0 10 23 c5 12 14
71 19 130 5 60 11 110 13 112 2 1 1859 6 4128 9 3685 6 4135 9 4215 23 97 17
290 13 355 -6 22 -7 175 -11 407 -11 l373 0 1 43 c1 23 3 34 6 24 9 -34 22
-16 26 35 2 29 3 18 1 -26 l-4 -79 47 7 c66 9 163 57 218 107 64 60 77 88 71
157 -3 31 -3 49 0 40 9 -31 24 -19 25 20 l2 37 7 -40 6 -40 23 50 c146 318
187 748 105 1114 -26 116 -83 292 -112 346 l-17 30 -6 -40 c-4 -28 -7 -32 -8
-13 0 14 -4 34 -8 44 -6 16 -7 16 -15 -2 -5 -11 -6 4 -3 39 5 54 3 62 -26 102
-59 82 -189 155 -277 155 l-32 0 4 -82 c2 -46 2 -65 0 -43 -3 22 -7 51 -10 65
-6 23 -7 24 -14 5 -7 -15 -9 -11 -9 20 l-1 40 -4252 -2 c-3920 -2 -4260 -4
-4345 -19 -104 -19 -345 -16 -396 5 -18 7 -110 11 -257 11 l-230 0 -4 23 c-3
12 -8 62 -11 110 -3 49 -10 100 -15 113 l-10 24 -294 0 c-273 0 -295 -1 -300
-18 -8 -23 -14 -70 -22 -170 l-7 -82 -156 2 -156 3 -2 460 -2 460 36 93 36 92
106 0 c157 0 151 -4 151 96 0 45 -4 85 -9 88 -4 3 -54 6 -111 7 -65 1 -112 6
-128 15 -22 11 -83 14 -297 12 -148 -1 -289 -4 -312 -6z m670 -62 c2 -3 8 -30
11 -61 l7 -56 -199 -7 c-109 -4 -287 -4 -395 0 l-197 7 0 36 c0 20 -3 46 -6
58 -6 22 -4 22 92 26 143 5 682 3 687 -3z m-187 -177 c-2 -10 -7 -34 -11 -53
-4 -19 -11 -52 -16 -73 l-10 -38 -156 3 -157 3 -18 80 c-9 44 -18 83 -18 88 0
4 88 7 196 7 181 0 195 -1 190 -17z m-46 -203 c22 -14 29 -864 7 -873 -7 -3
-48 -11 -90 -18 -65 -11 -88 -11 -149 2 l-73 15 -3 434 c-2 340 0 435 10 442
18 11 280 10 298 -2z m-801 -416 c104 -52 134 -130 129 -329 l-3 -120 -165 -6
c-138 -5 -174 -9 -222 -28 -32 -12 -60 -27 -63 -32 -4 -5 -10 -9 -16 -9 -13 0
-11 325 2 375 39 147 200 217 338 149z m1845 -504 c10 -66 25 -412 32 -775 9
-474 -16 -1279 -41 -1303 -13 -14 -24 19 -29 93 l-5 80 11 -64 c7 -42 13 -60
18 -50 41 72 41 1886 0 1992 -7 19 -9 17 -15 -18 -12 -71 -14 -71 -9 0 4 39 8
73 11 78 10 17 21 4 27 -33z m9495 -346 c-10 -276 -7 -1303 5 -1539 l5 -90
-11 65 c-22 131 -15 1890 8 1867 2 -2 -1 -138 -7 -303z m-9944 -674 l0 -935
-76 -3 -77 -3 -5 33 c-10 51 -31 712 -31 918 1 248 22 879 30 908 6 22 11 23
83 20 l76 -3 0 -935z m365 0 l0 -941 -77 3 -77 3 -7 35 c-12 56 -29 602 -29
901 0 330 19 884 31 916 8 21 14 23 84 23 l75 0 0 -940z m-235 -15 l1 -936
-26 3 c-24 3 -25 7 -32 83 -3 44 -11 258 -17 475 -10 376 -2 1031 15 1233 6
75 7 77 33 77 l26 0 0 -935z m9887 5 c0 -349 -4 -689 -9 -755 -5 -78 -8 193
-8 765 0 589 3 841 9 755 4 -71 8 -416 8 -765z m-9615 778 c-2 -13 -4 -5 -4
17 -1 22 1 32 4 23 2 -10 2 -28 0 -40z m-1117 -48 c124 -5 286 -7 360 -4 97 4
131 3 120 -5 -13 -9 -13 -11 1 -11 14 0 16 -44 22 -412 3 -227 2 -548 -1 -713
l-7 -300 -185 -6 c-102 -4 -390 -7 -641 -8 -426 -1 -457 0 -464 17 -4 9 -11
177 -17 372 -9 356 2 1034 18 1074 7 18 18 19 288 12 155 -4 382 -11 506 -16z
m-835 -725 c0 -404 -2 -735 -4 -735 -2 0 -26 14 -52 31 -91 58 -148 180 -185
394 -25 140 -25 490 0 630 37 212 84 316 176 388 70 54 65 106 65 -708z m1952
703 c-3 -8 -6 -5 -6 6 -1 11 2 17 5 13 3 -3 4 -12 1 -19z m9910 -120 c-2 -29
-3 -8 -3 47 0 55 1 79 3 53 2 -26 2 -71 0 -100z m61 -583 c0 -225 -3 -471 -7
-545 -3 -74 -6 176 -6 555 0 380 3 625 6 545 4 -80 7 -329 7 -555z m-9981 308
c-2 -32 -3 -8 -3 52 0 61 1 87 3 58 2 -29 2 -78 0 -110z m9910 -496 c-1 -116
-2 -21 -2 213 0 234 1 329 2 212 2 -116 2 -308 0 -425z m-9910 131 c-1 -40 -3
-10 -3 67 0 77 1 110 3 73 2 -37 2 -100 0 -140z m0 -315 c-2 -32 -3 -6 -3 57
0 63 1 89 3 58 2 -32 2 -84 0 -115z m9920 -265 c-2 -29 -3 -8 -3 47 0 55 1 79
3 53 2 -26 2 -71 0 -100z m-9910 -45 c-3 -10 -5 -4 -5 12 0 17 2 24 5 18 2 -7
2 -21 0 -30z m0 -85 c-2 -13 -4 -5 -4 17 -1 22 1 32 4 23 2 -10 2 -28 0 -40z
m-1042 -290 l65 -13 0 -436 0 -437 -66 -7 c-68 -8 -230 -3 -239 7 -4 3 -9 202
-12 441 l-6 434 49 10 c69 15 134 15 209 1z m83 -1015 c11 -49 19 -90 16 -92
-5 -6 -386 -2 -392 4 -4 3 20 120 34 163 2 9 44 12 163 12 l159 0 20 -87z
m214 -192 l3 -59 -145 -7 c-143 -8 -626 -2 -635 7 -2 2 -7 30 -11 61 l-7 57
396 0 395 0 4 -59z"/>
<path d="M565 4026 c-108 -47 -116 -189 -15 -241 76 -39 161 0 190 88 10 33 9
43 -11 83 -16 35 -32 51 -63 65 -48 22 -61 23 -101 5z m122 -39 c51 -51 46
-143 -10 -177 -51 -32 -103 -26 -143 14 -45 45 -48 107 -6 153 15 16 34 33 42
36 30 13 93 -1 117 -26z"/>
<path d="M2724 4971 c-2 -2 -4 -33 -4 -67 l0 -63 570 0 571 0 -3 67 -3 67
-563 0 c-310 0 -566 -2 -568 -4z"/>
<path d="M2980 4815 c0 -2 4 -14 9 -27 5 -13 22 -56 36 -95 l27 -73 238 0 238
0 16 43 c8 23 24 66 35 95 10 28 16 54 12 57 -9 5 -611 5 -611 0z"/>
<path d="M3055 4590 c-8 -12 -30 -11 237 -13 177 -2 228 1 228 11 0 15 -455
18 -465 2z"/>
<path d="M3056 4544 c-8 -21 -8 -528 1 -727 l6 -157 26 -8 c35 -10 379 -9 415
1 l29 8 -6 112 c-4 62 -7 264 -7 450 l0 337 -229 0 c-199 0 -230 -2 -235 -16z"/>
<path d="M10955 1546 c-5 -3 -31 -7 -57 -11 l-48 -6 0 -449 0 -449 235 0 235
0 0 448 0 449 -32 6 c-41 7 -319 17 -333 12z"/>
<path d="M5162 1522 c-9 -6 -12 -37 -10 -118 l3 -109 98 -3 97 -3 0 115 c0 95
-3 115 -16 120 -23 9 -157 7 -172 -2z"/>
<path d="M10853 607 c-3 -5 -2 -11 1 -14 3 -3 109 -6 236 -7 198 -1 230 1 230
14 0 13 -32 15 -231 15 -127 0 -233 -4 -236 -8z"/>
<path d="M10843 553 c-3 -10 -19 -51 -35 -91 -15 -40 -26 -78 -23 -83 4 -5
131 -9 306 -9 233 0 299 3 299 13 -1 6 -16 50 -34 97 l-33 85 -237 3 c-218 2
-237 1 -243 -15z"/>
<path d="M10520 278 l0 -66 565 0 565 0 0 66 0 67 -565 0 -565 0 0 -67z"/>
</g>
</svg>
